<svg width="74" height="76" viewBox="0 0 74 76" fill="none" xmlns="http://www.w3.org/2000/svg">
  <path d="M34.7578 2.02772C35.9511 0.685167 38.0489 0.685168 39.2422 2.02771L44.2133 7.62016C45.4152 8.97237 47.2539 9.5698 49.0212 9.18233L56.33 7.57986C58.0846 7.19516 59.7817 8.42817 59.958 10.2158L60.6925 17.6621C60.8701 19.4625 62.0065 21.0266 63.6639 21.7519L70.5188 24.7515C72.1644 25.4716 72.8126 27.4666 71.9046 29.0164L68.122 35.4724C67.2074 37.0333 67.2074 38.9667 68.122 40.5276L71.9046 46.9836C72.8126 48.5334 72.1644 50.5284 70.5188 51.2485L63.6639 54.2481C62.0065 54.9734 60.8701 56.5375 60.6925 58.3379L59.958 65.7842C59.7817 67.5718 58.0846 68.8048 56.33 68.4201L49.0212 66.8177C47.2539 66.4302 45.4152 67.0276 44.2133 68.3798L39.2422 73.9723C38.0489 75.3148 35.9511 75.3148 34.7578 73.9723L29.7867 68.3798C28.5848 67.0276 26.7461 66.4302 24.9788 66.8177L17.67 68.4201C15.9154 68.8048 14.2183 67.5718 14.042 65.7842L13.3075 58.3379C13.1299 56.5375 11.9935 54.9734 10.3361 54.2481L3.48121 51.2485C1.8356 50.5284 1.18737 48.5334 2.09544 46.9836L5.87803 40.5277C6.79263 38.9667 6.79263 37.0333 5.87803 35.4724L2.09544 29.0164C1.18737 27.4666 1.8356 25.4716 3.48121 24.7515L10.3361 21.7519C11.9935 21.0266 13.1299 19.4625 13.3075 17.6621L14.042 10.2158C14.2183 8.42817 15.9154 7.19516 17.67 7.57986L24.9788 9.18233C26.7461 9.5698 28.5848 8.97238 29.7867 7.62016L34.7578 2.02772Z" fill="#EBFAF3" stroke="#1BAA7D" stroke-width="2" />
</svg>
