<svg width="74" height="76" viewBox="0 0 74 76" fill="none" xmlns="http://www.w3.org/2000/svg">
  <path d="M34.0104 1.36335C35.6015 -0.42671 38.3985 -0.426712 39.9896 1.36335L44.9607 6.9558C45.9223 8.03757 47.3932 8.51551 48.807 8.20553L56.1158 6.60306C58.4553 6.09013 60.718 7.73414 60.9532 10.1176L61.6877 17.5639C61.8297 19.0043 62.7388 20.2555 64.0648 20.8357L70.9197 23.8353C73.1138 24.7955 73.9781 27.4555 72.7674 29.522L68.9848 35.9779C68.2531 37.2267 68.2531 38.7733 68.9848 40.0221L72.7674 46.478C73.9781 48.5445 73.1138 51.2045 70.9197 52.1647L64.0648 55.1643C62.7388 55.7445 61.8297 56.9957 61.6877 58.4361L60.9532 65.8824C60.718 68.2659 58.4553 69.9099 56.1158 69.3969L48.807 67.7945C47.3932 67.4845 45.9223 67.9624 44.9607 69.0442L39.9896 74.6367C38.3985 76.4267 35.6015 76.4267 34.0104 74.6367L29.0393 69.0442C28.0777 67.9624 26.6068 67.4845 25.193 67.7945L17.8842 69.3969C15.5447 69.9099 13.282 68.2659 13.0469 65.8824L12.3123 58.4361C12.1703 56.9957 11.2612 55.7445 9.9352 55.1643L3.08033 52.1647C0.886181 51.2045 0.021874 48.5445 1.23263 46.478L5.01522 40.0221C5.7469 38.7733 5.7469 37.2267 5.01522 35.9779L1.23263 29.522C0.0218744 27.4555 0.886179 24.7955 3.08033 23.8353L9.9352 20.8357C11.2612 20.2555 12.1703 19.0043 12.3123 17.5639L13.0468 10.1176C13.282 7.73414 15.5447 6.09013 17.8842 6.60306L25.193 8.20553C26.6068 8.51551 28.0777 8.03757 29.0393 6.9558L34.0104 1.36335Z" fill="#E62914" />
</svg>