<svg width="189" height="30" viewBox="0 0 189 30" fill="none" xmlns="http://www.w3.org/2000/svg">
  <path fill-rule="evenodd" clip-rule="evenodd" d="M11.6143 23.486H0V18.6997H13.05L15.97 20.6206L18.8899 18.6997H31.9399V23.486H20.3257L15.97 26.3515L11.6143 23.486Z" fill="#1BAA7D" />
  <path fill-rule="evenodd" clip-rule="evenodd" d="M15.969 5.93623C11.118 5.93623 7.18552 9.8649 7.18552 14.7112H2.39453C2.39453 7.22148 8.47203 1.1499 15.969 1.1499C23.466 1.1499 29.5435 7.22148 29.5435 14.7112H24.7525C24.7525 9.8649 20.82 5.93623 15.969 5.93623Z" fill="#1BAA7D" />
  <mask id="path-3-outside-1_2007_381" maskUnits="userSpaceOnUse" x="41.6777" y="0" width="147" height="30" fill="black">
    <rect fill="white" x="41.6777" width="147" height="30" />
    <path d="M42.6777 23.4862V3.12513H50.6116C53.812 3.12513 56.2937 3.96752 58.0568 5.65231C59.8199 7.33709 60.7014 9.80684 60.7014 13.0615C60.7014 16.3162 59.8391 18.8721 58.1143 20.7292C56.3895 22.5672 53.9174 23.4862 50.6978 23.4862H42.6777ZM46.6447 19.7528H50.7553C52.4801 19.7528 53.8599 19.188 54.8948 18.0585C55.9296 16.9289 56.447 15.2632 56.447 13.0615C56.447 11.0704 55.9392 9.54838 54.9235 8.49539C53.9078 7.42325 52.4801 6.88718 50.6404 6.88718H46.6447V19.7528Z" />
    <path d="M79.1657 15.6462C79.1657 16.2205 79.1562 16.613 79.137 16.8236H66.9487C67.1595 17.9915 67.6578 18.8913 68.4435 19.5231C69.2484 20.1549 70.2928 20.4708 71.5768 20.4708C73.5315 20.4708 75.0455 19.8007 76.1187 18.4605L78.6196 20.5856C77.0673 22.7299 74.6239 23.802 71.2894 23.802C68.6831 23.802 66.6325 23.065 65.1377 21.5908C63.6621 20.1166 62.9243 18.1159 62.9243 15.5887C62.9243 13.119 63.6813 11.1374 65.1952 9.6441C66.7092 8.13162 68.6735 7.37538 71.0881 7.37538C73.7136 7.37538 75.7162 8.13162 77.096 9.6441C78.4758 11.1374 79.1657 13.1381 79.1657 15.6462ZM71.0881 10.6779C70.0341 10.6779 69.143 10.9556 68.4148 11.5108C67.6865 12.0468 67.2074 12.8605 66.9775 13.9518H75.285C75.1509 13.0137 74.7389 12.2383 74.049 11.6256C73.3591 10.9938 72.3721 10.6779 71.0881 10.6779Z" />
    <path d="M87.4446 23.8882C84.9724 23.8882 82.759 23.4287 80.8043 22.5097L82.0691 19.3795C83.6214 20.3176 85.3749 20.7867 87.3296 20.7867C89.1502 20.7867 90.0604 20.2315 90.0604 19.121C90.0604 18.6615 89.8209 18.3074 89.3418 18.0585C88.8627 17.8096 87.9428 17.532 86.5822 17.2256C84.685 16.8044 83.2764 16.2301 82.3565 15.5026C81.4558 14.775 81.0055 13.7125 81.0055 12.3149C81.0055 10.745 81.5612 9.54838 82.6727 8.72513C83.8034 7.90188 85.3365 7.49026 87.2721 7.49026C89.2651 7.49026 91.3157 7.90188 93.4237 8.72513L92.1302 11.8841C90.6162 11.08 88.9873 10.6779 87.2433 10.6779C85.7102 10.6779 84.9437 11.1279 84.9437 12.0277C84.9437 12.5063 85.1641 12.8701 85.6048 13.119C86.0648 13.3679 86.9751 13.655 88.3357 13.9805C90.3096 14.4591 91.7565 15.0526 92.6763 15.761C93.6154 16.4503 94.0849 17.4458 94.0849 18.7477C94.0849 22.1747 91.8714 23.8882 87.4446 23.8882Z" />
    <path d="M96.8818 23.4862V1.71795H100.82V9.24205C102.238 8.05504 103.877 7.46154 105.736 7.46154C107.748 7.46154 109.243 7.97846 110.22 9.01231C111.216 10.027 111.715 11.7309 111.715 14.1241V23.4862H107.776V15.1005C107.776 13.6072 107.489 12.5542 106.914 11.9415C106.358 11.3289 105.544 11.0226 104.471 11.0226C103.11 11.0226 101.903 11.5682 100.849 12.6595V23.4862H96.8818Z" />
    <path d="M121.941 23.8308C119.642 23.8308 117.802 23.0937 116.422 21.6195C115.042 20.1262 114.353 18.1255 114.353 15.6174C114.353 13.1285 115.033 11.147 116.394 9.67282C117.754 8.17949 119.546 7.43282 121.769 7.43282C123.82 7.43282 125.429 8.00718 126.598 9.1559V7.80615H130.508V23.4862H126.656V21.9641C125.621 23.2085 124.05 23.8308 121.941 23.8308ZM122.804 20.2697C124.605 20.2697 125.889 19.5805 126.656 18.2021V13.0041C126.273 12.3723 125.717 11.8841 124.989 11.5395C124.26 11.1757 123.503 10.9938 122.718 10.9938C121.434 10.9938 120.399 11.4055 119.613 12.2287C118.827 13.0328 118.434 14.1624 118.434 15.6174C118.434 17.0533 118.827 18.1925 119.613 19.0349C120.399 19.8581 121.462 20.2697 122.804 20.2697Z" />
    <path d="M134.192 23.4862V7.80615H138.015V9.84513C139.222 8.25607 140.851 7.46154 142.902 7.46154C143.381 7.46154 143.745 7.5094 143.994 7.60513V11.8841C143.266 11.6926 142.633 11.5969 142.097 11.5969C140.928 11.5969 139.979 11.9798 139.251 12.7456C138.523 13.5115 138.159 14.6219 138.159 16.0769V23.4862H134.192Z" />
    <path d="M150.28 5.1641C149.821 5.64274 149.255 5.88205 148.584 5.88205C147.914 5.88205 147.339 5.64274 146.86 5.1641C146.381 4.68547 146.141 4.11111 146.141 3.44103C146.141 2.77094 146.381 2.19658 146.86 1.71795C147.339 1.23932 147.914 1 148.584 1C149.255 1 149.821 1.23932 150.28 1.71795C150.76 2.19658 150.999 2.77094 150.999 3.44103C150.999 4.11111 150.76 4.68547 150.28 5.1641ZM146.543 23.4862V7.80615H150.568V23.4862H146.543Z" />
    <path d="M154.376 23.4862V7.80615H158.199V9.24205C159.655 8.05504 161.332 7.46154 163.229 7.46154C165.242 7.46154 166.736 7.97846 167.714 9.01231C168.71 10.027 169.209 11.7309 169.209 14.1241V23.4862H165.27V15.1005C165.27 13.6072 164.983 12.5542 164.408 11.9415C163.852 11.3289 163.038 11.0226 161.965 11.0226C160.604 11.0226 159.397 11.5682 158.343 12.6595V23.4862H154.376Z" />
    <path d="M179.836 29C177.229 29 175.083 28.6554 173.397 27.9662V24.319C175.351 25.1997 177.287 25.64 179.203 25.64C180.832 25.64 182.059 25.3624 182.883 24.8072C183.726 24.252 184.148 23.3234 184.148 22.0215V21.0164C183.113 22.2417 181.541 22.8544 179.433 22.8544C177.153 22.8544 175.313 22.1364 173.914 20.7005C172.534 19.2646 171.844 17.4075 171.844 15.1292C171.844 12.8509 172.525 11.0034 173.885 9.58667C175.265 8.15077 177.057 7.43282 179.261 7.43282C181.311 7.43282 182.921 8.00718 184.09 9.1559V7.80615H188V20.7292C188 23.4096 187.367 25.4581 186.102 26.8749C184.838 28.2916 182.749 29 179.836 29ZM180.296 19.3221C182.097 19.3221 183.381 18.6328 184.148 17.2544V13.0041C183.764 12.3723 183.209 11.8745 182.48 11.5108C181.752 11.147 180.995 10.9651 180.209 10.9651C178.945 10.9651 177.91 11.348 177.105 12.1138C176.319 12.8797 175.926 13.8752 175.926 15.1005C175.926 16.345 176.319 17.3597 177.105 18.1446C177.91 18.9296 178.973 19.3221 180.296 19.3221Z" />
  </mask>
  <path d="M42.6777 23.4862V3.12513H50.6116C53.812 3.12513 56.2937 3.96752 58.0568 5.65231C59.8199 7.33709 60.7014 9.80684 60.7014 13.0615C60.7014 16.3162 59.8391 18.8721 58.1143 20.7292C56.3895 22.5672 53.9174 23.4862 50.6978 23.4862H42.6777ZM46.6447 19.7528H50.7553C52.4801 19.7528 53.8599 19.188 54.8948 18.0585C55.9296 16.9289 56.447 15.2632 56.447 13.0615C56.447 11.0704 55.9392 9.54838 54.9235 8.49539C53.9078 7.42325 52.4801 6.88718 50.6404 6.88718H46.6447V19.7528Z" fill="white" />
  <path d="M79.1657 15.6462C79.1657 16.2205 79.1562 16.613 79.137 16.8236H66.9487C67.1595 17.9915 67.6578 18.8913 68.4435 19.5231C69.2484 20.1549 70.2928 20.4708 71.5768 20.4708C73.5315 20.4708 75.0455 19.8007 76.1187 18.4605L78.6196 20.5856C77.0673 22.7299 74.6239 23.802 71.2894 23.802C68.6831 23.802 66.6325 23.065 65.1377 21.5908C63.6621 20.1166 62.9243 18.1159 62.9243 15.5887C62.9243 13.119 63.6813 11.1374 65.1952 9.6441C66.7092 8.13162 68.6735 7.37538 71.0881 7.37538C73.7136 7.37538 75.7162 8.13162 77.096 9.6441C78.4758 11.1374 79.1657 13.1381 79.1657 15.6462ZM71.0881 10.6779C70.0341 10.6779 69.143 10.9556 68.4148 11.5108C67.6865 12.0468 67.2074 12.8605 66.9775 13.9518H75.285C75.1509 13.0137 74.7389 12.2383 74.049 11.6256C73.3591 10.9938 72.3721 10.6779 71.0881 10.6779Z" fill="white" />
  <path d="M87.4446 23.8882C84.9724 23.8882 82.759 23.4287 80.8043 22.5097L82.0691 19.3795C83.6214 20.3176 85.3749 20.7867 87.3296 20.7867C89.1502 20.7867 90.0604 20.2315 90.0604 19.121C90.0604 18.6615 89.8209 18.3074 89.3418 18.0585C88.8627 17.8096 87.9428 17.532 86.5822 17.2256C84.685 16.8044 83.2764 16.2301 82.3565 15.5026C81.4558 14.775 81.0055 13.7125 81.0055 12.3149C81.0055 10.745 81.5612 9.54838 82.6727 8.72513C83.8034 7.90188 85.3365 7.49026 87.2721 7.49026C89.2651 7.49026 91.3157 7.90188 93.4237 8.72513L92.1302 11.8841C90.6162 11.08 88.9873 10.6779 87.2433 10.6779C85.7102 10.6779 84.9437 11.1279 84.9437 12.0277C84.9437 12.5063 85.1641 12.8701 85.6048 13.119C86.0648 13.3679 86.9751 13.655 88.3357 13.9805C90.3096 14.4591 91.7565 15.0526 92.6763 15.761C93.6154 16.4503 94.0849 17.4458 94.0849 18.7477C94.0849 22.1747 91.8714 23.8882 87.4446 23.8882Z" fill="white" />
  <path d="M96.8818 23.4862V1.71795H100.82V9.24205C102.238 8.05504 103.877 7.46154 105.736 7.46154C107.748 7.46154 109.243 7.97846 110.22 9.01231C111.216 10.027 111.715 11.7309 111.715 14.1241V23.4862H107.776V15.1005C107.776 13.6072 107.489 12.5542 106.914 11.9415C106.358 11.3289 105.544 11.0226 104.471 11.0226C103.11 11.0226 101.903 11.5682 100.849 12.6595V23.4862H96.8818Z" fill="white" />
  <path d="M121.941 23.8308C119.642 23.8308 117.802 23.0937 116.422 21.6195C115.042 20.1262 114.353 18.1255 114.353 15.6174C114.353 13.1285 115.033 11.147 116.394 9.67282C117.754 8.17949 119.546 7.43282 121.769 7.43282C123.82 7.43282 125.429 8.00718 126.598 9.1559V7.80615H130.508V23.4862H126.656V21.9641C125.621 23.2085 124.05 23.8308 121.941 23.8308ZM122.804 20.2697C124.605 20.2697 125.889 19.5805 126.656 18.2021V13.0041C126.273 12.3723 125.717 11.8841 124.989 11.5395C124.26 11.1757 123.503 10.9938 122.718 10.9938C121.434 10.9938 120.399 11.4055 119.613 12.2287C118.827 13.0328 118.434 14.1624 118.434 15.6174C118.434 17.0533 118.827 18.1925 119.613 19.0349C120.399 19.8581 121.462 20.2697 122.804 20.2697Z" fill="white" />
  <path d="M134.192 23.4862V7.80615H138.015V9.84513C139.222 8.25607 140.851 7.46154 142.902 7.46154C143.381 7.46154 143.745 7.5094 143.994 7.60513V11.8841C143.266 11.6926 142.633 11.5969 142.097 11.5969C140.928 11.5969 139.979 11.9798 139.251 12.7456C138.523 13.5115 138.159 14.6219 138.159 16.0769V23.4862H134.192Z" fill="white" />
  <path d="M150.28 5.1641C149.821 5.64274 149.255 5.88205 148.584 5.88205C147.914 5.88205 147.339 5.64274 146.86 5.1641C146.381 4.68547 146.141 4.11111 146.141 3.44103C146.141 2.77094 146.381 2.19658 146.86 1.71795C147.339 1.23932 147.914 1 148.584 1C149.255 1 149.821 1.23932 150.28 1.71795C150.76 2.19658 150.999 2.77094 150.999 3.44103C150.999 4.11111 150.76 4.68547 150.28 5.1641ZM146.543 23.4862V7.80615H150.568V23.4862H146.543Z" fill="white" />
  <path d="M154.376 23.4862V7.80615H158.199V9.24205C159.655 8.05504 161.332 7.46154 163.229 7.46154C165.242 7.46154 166.736 7.97846 167.714 9.01231C168.71 10.027 169.209 11.7309 169.209 14.1241V23.4862H165.27V15.1005C165.27 13.6072 164.983 12.5542 164.408 11.9415C163.852 11.3289 163.038 11.0226 161.965 11.0226C160.604 11.0226 159.397 11.5682 158.343 12.6595V23.4862H154.376Z" fill="white" />
  <path d="M179.836 29C177.229 29 175.083 28.6554 173.397 27.9662V24.319C175.351 25.1997 177.287 25.64 179.203 25.64C180.832 25.64 182.059 25.3624 182.883 24.8072C183.726 24.252 184.148 23.3234 184.148 22.0215V21.0164C183.113 22.2417 181.541 22.8544 179.433 22.8544C177.153 22.8544 175.313 22.1364 173.914 20.7005C172.534 19.2646 171.844 17.4075 171.844 15.1292C171.844 12.8509 172.525 11.0034 173.885 9.58667C175.265 8.15077 177.057 7.43282 179.261 7.43282C181.311 7.43282 182.921 8.00718 184.09 9.1559V7.80615H188V20.7292C188 23.4096 187.367 25.4581 186.102 26.8749C184.838 28.2916 182.749 29 179.836 29ZM180.296 19.3221C182.097 19.3221 183.381 18.6328 184.148 17.2544V13.0041C183.764 12.3723 183.209 11.8745 182.48 11.5108C181.752 11.147 180.995 10.9651 180.209 10.9651C178.945 10.9651 177.91 11.348 177.105 12.1138C176.319 12.8797 175.926 13.8752 175.926 15.1005C175.926 16.345 176.319 17.3597 177.105 18.1446C177.91 18.9296 178.973 19.3221 180.296 19.3221Z" fill="white" />
  <path d="M42.6777 23.4862V3.12513H50.6116C53.812 3.12513 56.2937 3.96752 58.0568 5.65231C59.8199 7.33709 60.7014 9.80684 60.7014 13.0615C60.7014 16.3162 59.8391 18.8721 58.1143 20.7292C56.3895 22.5672 53.9174 23.4862 50.6978 23.4862H42.6777ZM46.6447 19.7528H50.7553C52.4801 19.7528 53.8599 19.188 54.8948 18.0585C55.9296 16.9289 56.447 15.2632 56.447 13.0615C56.447 11.0704 55.9392 9.54838 54.9235 8.49539C53.9078 7.42325 52.4801 6.88718 50.6404 6.88718H46.6447V19.7528Z" stroke="white" stroke-width="0.4" mask="url(#path-3-outside-1_2007_381)" />
  <path d="M79.1657 15.6462C79.1657 16.2205 79.1562 16.613 79.137 16.8236H66.9487C67.1595 17.9915 67.6578 18.8913 68.4435 19.5231C69.2484 20.1549 70.2928 20.4708 71.5768 20.4708C73.5315 20.4708 75.0455 19.8007 76.1187 18.4605L78.6196 20.5856C77.0673 22.7299 74.6239 23.802 71.2894 23.802C68.6831 23.802 66.6325 23.065 65.1377 21.5908C63.6621 20.1166 62.9243 18.1159 62.9243 15.5887C62.9243 13.119 63.6813 11.1374 65.1952 9.6441C66.7092 8.13162 68.6735 7.37538 71.0881 7.37538C73.7136 7.37538 75.7162 8.13162 77.096 9.6441C78.4758 11.1374 79.1657 13.1381 79.1657 15.6462ZM71.0881 10.6779C70.0341 10.6779 69.143 10.9556 68.4148 11.5108C67.6865 12.0468 67.2074 12.8605 66.9775 13.9518H75.285C75.1509 13.0137 74.7389 12.2383 74.049 11.6256C73.3591 10.9938 72.3721 10.6779 71.0881 10.6779Z" stroke="white" stroke-width="0.4" mask="url(#path-3-outside-1_2007_381)" />
  <path d="M87.4446 23.8882C84.9724 23.8882 82.759 23.4287 80.8043 22.5097L82.0691 19.3795C83.6214 20.3176 85.3749 20.7867 87.3296 20.7867C89.1502 20.7867 90.0604 20.2315 90.0604 19.121C90.0604 18.6615 89.8209 18.3074 89.3418 18.0585C88.8627 17.8096 87.9428 17.532 86.5822 17.2256C84.685 16.8044 83.2764 16.2301 82.3565 15.5026C81.4558 14.775 81.0055 13.7125 81.0055 12.3149C81.0055 10.745 81.5612 9.54838 82.6727 8.72513C83.8034 7.90188 85.3365 7.49026 87.2721 7.49026C89.2651 7.49026 91.3157 7.90188 93.4237 8.72513L92.1302 11.8841C90.6162 11.08 88.9873 10.6779 87.2433 10.6779C85.7102 10.6779 84.9437 11.1279 84.9437 12.0277C84.9437 12.5063 85.1641 12.8701 85.6048 13.119C86.0648 13.3679 86.9751 13.655 88.3357 13.9805C90.3096 14.4591 91.7565 15.0526 92.6763 15.761C93.6154 16.4503 94.0849 17.4458 94.0849 18.7477C94.0849 22.1747 91.8714 23.8882 87.4446 23.8882Z" stroke="white" stroke-width="0.4" mask="url(#path-3-outside-1_2007_381)" />
  <path d="M96.8818 23.4862V1.71795H100.82V9.24205C102.238 8.05504 103.877 7.46154 105.736 7.46154C107.748 7.46154 109.243 7.97846 110.22 9.01231C111.216 10.027 111.715 11.7309 111.715 14.1241V23.4862H107.776V15.1005C107.776 13.6072 107.489 12.5542 106.914 11.9415C106.358 11.3289 105.544 11.0226 104.471 11.0226C103.11 11.0226 101.903 11.5682 100.849 12.6595V23.4862H96.8818Z" stroke="white" stroke-width="0.4" mask="url(#path-3-outside-1_2007_381)" />
  <path d="M121.941 23.8308C119.642 23.8308 117.802 23.0937 116.422 21.6195C115.042 20.1262 114.353 18.1255 114.353 15.6174C114.353 13.1285 115.033 11.147 116.394 9.67282C117.754 8.17949 119.546 7.43282 121.769 7.43282C123.82 7.43282 125.429 8.00718 126.598 9.1559V7.80615H130.508V23.4862H126.656V21.9641C125.621 23.2085 124.05 23.8308 121.941 23.8308ZM122.804 20.2697C124.605 20.2697 125.889 19.5805 126.656 18.2021V13.0041C126.273 12.3723 125.717 11.8841 124.989 11.5395C124.26 11.1757 123.503 10.9938 122.718 10.9938C121.434 10.9938 120.399 11.4055 119.613 12.2287C118.827 13.0328 118.434 14.1624 118.434 15.6174C118.434 17.0533 118.827 18.1925 119.613 19.0349C120.399 19.8581 121.462 20.2697 122.804 20.2697Z" stroke="white" stroke-width="0.4" mask="url(#path-3-outside-1_2007_381)" />
  <path d="M134.192 23.4862V7.80615H138.015V9.84513C139.222 8.25607 140.851 7.46154 142.902 7.46154C143.381 7.46154 143.745 7.5094 143.994 7.60513V11.8841C143.266 11.6926 142.633 11.5969 142.097 11.5969C140.928 11.5969 139.979 11.9798 139.251 12.7456C138.523 13.5115 138.159 14.6219 138.159 16.0769V23.4862H134.192Z" stroke="white" stroke-width="0.4" mask="url(#path-3-outside-1_2007_381)" />
  <path d="M150.28 5.1641C149.821 5.64274 149.255 5.88205 148.584 5.88205C147.914 5.88205 147.339 5.64274 146.86 5.1641C146.381 4.68547 146.141 4.11111 146.141 3.44103C146.141 2.77094 146.381 2.19658 146.86 1.71795C147.339 1.23932 147.914 1 148.584 1C149.255 1 149.821 1.23932 150.28 1.71795C150.76 2.19658 150.999 2.77094 150.999 3.44103C150.999 4.11111 150.76 4.68547 150.28 5.1641ZM146.543 23.4862V7.80615H150.568V23.4862H146.543Z" stroke="white" stroke-width="0.4" mask="url(#path-3-outside-1_2007_381)" />
  <path d="M154.376 23.4862V7.80615H158.199V9.24205C159.655 8.05504 161.332 7.46154 163.229 7.46154C165.242 7.46154 166.736 7.97846 167.714 9.01231C168.71 10.027 169.209 11.7309 169.209 14.1241V23.4862H165.27V15.1005C165.27 13.6072 164.983 12.5542 164.408 11.9415C163.852 11.3289 163.038 11.0226 161.965 11.0226C160.604 11.0226 159.397 11.5682 158.343 12.6595V23.4862H154.376Z" stroke="white" stroke-width="0.4" mask="url(#path-3-outside-1_2007_381)" />
  <path d="M179.836 29C177.229 29 175.083 28.6554 173.397 27.9662V24.319C175.351 25.1997 177.287 25.64 179.203 25.64C180.832 25.64 182.059 25.3624 182.883 24.8072C183.726 24.252 184.148 23.3234 184.148 22.0215V21.0164C183.113 22.2417 181.541 22.8544 179.433 22.8544C177.153 22.8544 175.313 22.1364 173.914 20.7005C172.534 19.2646 171.844 17.4075 171.844 15.1292C171.844 12.8509 172.525 11.0034 173.885 9.58667C175.265 8.15077 177.057 7.43282 179.261 7.43282C181.311 7.43282 182.921 8.00718 184.09 9.1559V7.80615H188V20.7292C188 23.4096 187.367 25.4581 186.102 26.8749C184.838 28.2916 182.749 29 179.836 29ZM180.296 19.3221C182.097 19.3221 183.381 18.6328 184.148 17.2544V13.0041C183.764 12.3723 183.209 11.8745 182.48 11.5108C181.752 11.147 180.995 10.9651 180.209 10.9651C178.945 10.9651 177.91 11.348 177.105 12.1138C176.319 12.8797 175.926 13.8752 175.926 15.1005C175.926 16.345 176.319 17.3597 177.105 18.1446C177.91 18.9296 178.973 19.3221 180.296 19.3221Z" stroke="white" stroke-width="0.4" mask="url(#path-3-outside-1_2007_381)" />
</svg>