<svg width="189" height="30" viewBox="0 0 189 30" fill="none" xmlns="http://www.w3.org/2000/svg">
  <path fill-rule="evenodd" clip-rule="evenodd" d="M11.6143 23.486H0V18.6997H13.05L15.97 20.6206L18.8899 18.6997H31.9399V23.486H20.3257L15.97 26.3515L11.6143 23.486Z" fill="#1BAA7D" />
  <path fill-rule="evenodd" clip-rule="evenodd" d="M15.97 5.93623C11.119 5.93623 7.1865 9.8649 7.1865 14.7112H2.39551C2.39551 7.22148 8.473 1.1499 15.97 1.1499C23.4669 1.1499 29.5444 7.22148 29.5444 14.7112H24.7534C24.7534 9.8649 20.821 5.93623 15.97 5.93623Z" fill="#1BAA7D" />
  <mask id="path-3-outside-1_4009_3043" maskUnits="userSpaceOnUse" x="41.6781" y="0" width="147" height="30" fill="black">
    <rect fill="white" x="41.6781" width="147" height="30" />
    <path d="M42.6781 23.4862V3.12513H50.612C53.8124 3.12513 56.2941 3.96752 58.0572 5.65231C59.8203 7.33709 60.7018 9.80684 60.7018 13.0615C60.7018 16.3162 59.8394 18.8721 58.1147 20.7292C56.3899 22.5672 53.9178 23.4862 50.6982 23.4862H42.6781ZM46.645 19.7528H50.7557C52.4805 19.7528 53.8603 19.188 54.8951 18.0585C55.93 16.9289 56.4474 15.2632 56.4474 13.0615C56.4474 11.0704 55.9396 9.54838 54.9239 8.49539C53.9082 7.42325 52.4805 6.88718 50.6407 6.88718H46.645V19.7528Z" />
    <path d="M79.1661 15.6462C79.1661 16.2205 79.1565 16.613 79.1374 16.8236H66.9491C67.1599 17.9915 67.6582 18.8913 68.4439 19.5231C69.2488 20.1549 70.2932 20.4708 71.5772 20.4708C73.5319 20.4708 75.0459 19.8007 76.119 18.4605L78.6199 20.5856C77.0677 22.7299 74.6243 23.802 71.2897 23.802C68.6834 23.802 66.6329 23.065 65.1381 21.5908C63.6625 20.1166 62.9247 18.1159 62.9247 15.5887C62.9247 13.119 63.6816 11.1374 65.1956 9.6441C66.7095 8.13162 68.6738 7.37538 71.0885 7.37538C73.714 7.37538 75.7166 8.13162 77.0964 9.6441C78.4762 11.1374 79.1661 13.1381 79.1661 15.6462ZM71.0885 10.6779C70.0345 10.6779 69.1434 10.9556 68.4151 11.5108C67.6869 12.0468 67.2078 12.8605 66.9778 13.9518H75.2854C75.1513 13.0137 74.7392 12.2383 74.0493 11.6256C73.3594 10.9938 72.3725 10.6779 71.0885 10.6779Z" />
    <path d="M87.4449 23.8882C84.9728 23.8882 82.7593 23.4287 80.8046 22.5097L82.0694 19.3795C83.6217 20.3176 85.3752 20.7867 87.3299 20.7867C89.1505 20.7867 90.0608 20.2315 90.0608 19.121C90.0608 18.6615 89.8213 18.3074 89.3422 18.0585C88.8631 17.8096 87.9432 17.532 86.5826 17.2256C84.6853 16.8044 83.2768 16.2301 82.3569 15.5026C81.4562 14.775 81.0058 13.7125 81.0058 12.3149C81.0058 10.745 81.5616 9.54838 82.6731 8.72513C83.8038 7.90188 85.3369 7.49026 87.2725 7.49026C89.2655 7.49026 91.3161 7.90188 93.4241 8.72513L92.1305 11.8841C90.6166 11.08 88.9876 10.6779 87.2437 10.6779C85.7106 10.6779 84.944 11.1279 84.944 12.0277C84.944 12.5063 85.1644 12.8701 85.6052 13.119C86.0651 13.3679 86.9754 13.655 88.3361 13.9805C90.3099 14.4591 91.7568 15.0526 92.6767 15.761C93.6157 16.4503 94.0852 17.4458 94.0852 18.7477C94.0852 22.1747 91.8718 23.8882 87.4449 23.8882Z" />
    <path d="M96.8821 23.4862V1.71795H100.82V9.24205C102.238 8.05504 103.877 7.46154 105.736 7.46154C107.748 7.46154 109.243 7.97846 110.22 9.01231C111.217 10.027 111.715 11.7309 111.715 14.1241V23.4862H107.777V15.1005C107.777 13.6072 107.489 12.5542 106.914 11.9415C106.359 11.3289 105.544 11.0226 104.471 11.0226C103.11 11.0226 101.903 11.5682 100.849 12.6595V23.4862H96.8821Z" />
    <path d="M121.942 23.8308C119.642 23.8308 117.802 23.0937 116.423 21.6195C115.043 20.1262 114.353 18.1255 114.353 15.6174C114.353 13.1285 115.033 11.147 116.394 9.67282C117.755 8.17949 119.546 7.43282 121.769 7.43282C123.82 7.43282 125.43 8.00718 126.599 9.1559V7.80615H130.508V23.4862H126.656V21.9641C125.621 23.2085 124.05 23.8308 121.942 23.8308ZM122.804 20.2697C124.606 20.2697 125.89 19.5805 126.656 18.2021V13.0041C126.273 12.3723 125.717 11.8841 124.989 11.5395C124.261 11.1757 123.504 10.9938 122.718 10.9938C121.434 10.9938 120.399 11.4055 119.613 12.2287C118.828 13.0328 118.435 14.1624 118.435 15.6174C118.435 17.0533 118.828 18.1925 119.613 19.0349C120.399 19.8581 121.463 20.2697 122.804 20.2697Z" />
    <path d="M134.192 23.4862V7.80615H138.015V9.84513C139.223 8.25607 140.852 7.46154 142.902 7.46154C143.381 7.46154 143.745 7.5094 143.994 7.60513V11.8841C143.266 11.6926 142.634 11.5969 142.097 11.5969C140.928 11.5969 139.98 11.9798 139.251 12.7456C138.523 13.5115 138.159 14.6219 138.159 16.0769V23.4862H134.192Z" />
    <path d="M150.281 5.1641C149.821 5.64274 149.256 5.88205 148.585 5.88205C147.914 5.88205 147.339 5.64274 146.86 5.1641C146.381 4.68547 146.141 4.11111 146.141 3.44103C146.141 2.77094 146.381 2.19658 146.86 1.71795C147.339 1.23932 147.914 1 148.585 1C149.256 1 149.821 1.23932 150.281 1.71795C150.76 2.19658 150.999 2.77094 150.999 3.44103C150.999 4.11111 150.76 4.68547 150.281 5.1641ZM146.544 23.4862V7.80615H150.568V23.4862H146.544Z" />
    <path d="M154.376 23.4862V7.80615H158.199V9.24205C159.656 8.05504 161.333 7.46154 163.23 7.46154C165.242 7.46154 166.737 7.97846 167.714 9.01231C168.711 10.027 169.209 11.7309 169.209 14.1241V23.4862H165.271V15.1005C165.271 13.6072 164.983 12.5542 164.408 11.9415C163.853 11.3289 163.038 11.0226 161.965 11.0226C160.604 11.0226 159.397 11.5682 158.343 12.6595V23.4862H154.376Z" />
    <path d="M179.836 29C177.23 29 175.083 28.6554 173.397 27.9662V24.319C175.352 25.1997 177.287 25.64 179.204 25.64C180.833 25.64 182.059 25.3624 182.883 24.8072C183.726 24.252 184.148 23.3234 184.148 22.0215V21.0164C183.113 22.2417 181.542 22.8544 179.434 22.8544C177.153 22.8544 175.313 22.1364 173.914 20.7005C172.535 19.2646 171.845 17.4075 171.845 15.1292C171.845 12.8509 172.525 11.0034 173.886 9.58667C175.266 8.15077 177.057 7.43282 179.261 7.43282C181.312 7.43282 182.922 8.00718 184.091 9.1559V7.80615H188V20.7292C188 23.4096 187.368 25.4581 186.103 26.8749C184.838 28.2916 182.749 29 179.836 29ZM180.296 19.3221C182.097 19.3221 183.381 18.6328 184.148 17.2544V13.0041C183.765 12.3723 183.209 11.8745 182.481 11.5108C181.753 11.147 180.996 10.9651 180.21 10.9651C178.945 10.9651 177.91 11.348 177.105 12.1138C176.32 12.8797 175.927 13.8752 175.927 15.1005C175.927 16.345 176.32 17.3597 177.105 18.1446C177.91 18.9296 178.974 19.3221 180.296 19.3221Z" />
  </mask>
  <path d="M42.6781 23.4862V3.12513H50.612C53.8124 3.12513 56.2941 3.96752 58.0572 5.65231C59.8203 7.33709 60.7018 9.80684 60.7018 13.0615C60.7018 16.3162 59.8394 18.8721 58.1147 20.7292C56.3899 22.5672 53.9178 23.4862 50.6982 23.4862H42.6781ZM46.645 19.7528H50.7557C52.4805 19.7528 53.8603 19.188 54.8951 18.0585C55.93 16.9289 56.4474 15.2632 56.4474 13.0615C56.4474 11.0704 55.9396 9.54838 54.9239 8.49539C53.9082 7.42325 52.4805 6.88718 50.6407 6.88718H46.645V19.7528Z" fill="#303030" />
  <path d="M79.1661 15.6462C79.1661 16.2205 79.1565 16.613 79.1374 16.8236H66.9491C67.1599 17.9915 67.6582 18.8913 68.4439 19.5231C69.2488 20.1549 70.2932 20.4708 71.5772 20.4708C73.5319 20.4708 75.0459 19.8007 76.119 18.4605L78.6199 20.5856C77.0677 22.7299 74.6243 23.802 71.2897 23.802C68.6834 23.802 66.6329 23.065 65.1381 21.5908C63.6625 20.1166 62.9247 18.1159 62.9247 15.5887C62.9247 13.119 63.6816 11.1374 65.1956 9.6441C66.7095 8.13162 68.6738 7.37538 71.0885 7.37538C73.714 7.37538 75.7166 8.13162 77.0964 9.6441C78.4762 11.1374 79.1661 13.1381 79.1661 15.6462ZM71.0885 10.6779C70.0345 10.6779 69.1434 10.9556 68.4151 11.5108C67.6869 12.0468 67.2078 12.8605 66.9778 13.9518H75.2854C75.1513 13.0137 74.7392 12.2383 74.0493 11.6256C73.3594 10.9938 72.3725 10.6779 71.0885 10.6779Z" fill="#303030" />
  <path d="M87.4449 23.8882C84.9728 23.8882 82.7593 23.4287 80.8046 22.5097L82.0694 19.3795C83.6217 20.3176 85.3752 20.7867 87.3299 20.7867C89.1505 20.7867 90.0608 20.2315 90.0608 19.121C90.0608 18.6615 89.8213 18.3074 89.3422 18.0585C88.8631 17.8096 87.9432 17.532 86.5826 17.2256C84.6853 16.8044 83.2768 16.2301 82.3569 15.5026C81.4562 14.775 81.0058 13.7125 81.0058 12.3149C81.0058 10.745 81.5616 9.54838 82.6731 8.72513C83.8038 7.90188 85.3369 7.49026 87.2725 7.49026C89.2655 7.49026 91.3161 7.90188 93.4241 8.72513L92.1305 11.8841C90.6166 11.08 88.9876 10.6779 87.2437 10.6779C85.7106 10.6779 84.944 11.1279 84.944 12.0277C84.944 12.5063 85.1644 12.8701 85.6052 13.119C86.0651 13.3679 86.9754 13.655 88.3361 13.9805C90.3099 14.4591 91.7568 15.0526 92.6767 15.761C93.6157 16.4503 94.0852 17.4458 94.0852 18.7477C94.0852 22.1747 91.8718 23.8882 87.4449 23.8882Z" fill="#303030" />
  <path d="M96.8821 23.4862V1.71795H100.82V9.24205C102.238 8.05504 103.877 7.46154 105.736 7.46154C107.748 7.46154 109.243 7.97846 110.22 9.01231C111.217 10.027 111.715 11.7309 111.715 14.1241V23.4862H107.777V15.1005C107.777 13.6072 107.489 12.5542 106.914 11.9415C106.359 11.3289 105.544 11.0226 104.471 11.0226C103.11 11.0226 101.903 11.5682 100.849 12.6595V23.4862H96.8821Z" fill="#303030" />
  <path d="M121.942 23.8308C119.642 23.8308 117.802 23.0937 116.423 21.6195C115.043 20.1262 114.353 18.1255 114.353 15.6174C114.353 13.1285 115.033 11.147 116.394 9.67282C117.755 8.17949 119.546 7.43282 121.769 7.43282C123.82 7.43282 125.43 8.00718 126.599 9.1559V7.80615H130.508V23.4862H126.656V21.9641C125.621 23.2085 124.05 23.8308 121.942 23.8308ZM122.804 20.2697C124.606 20.2697 125.89 19.5805 126.656 18.2021V13.0041C126.273 12.3723 125.717 11.8841 124.989 11.5395C124.261 11.1757 123.504 10.9938 122.718 10.9938C121.434 10.9938 120.399 11.4055 119.613 12.2287C118.828 13.0328 118.435 14.1624 118.435 15.6174C118.435 17.0533 118.828 18.1925 119.613 19.0349C120.399 19.8581 121.463 20.2697 122.804 20.2697Z" fill="#303030" />
  <path d="M134.192 23.4862V7.80615H138.015V9.84513C139.223 8.25607 140.852 7.46154 142.902 7.46154C143.381 7.46154 143.745 7.5094 143.994 7.60513V11.8841C143.266 11.6926 142.634 11.5969 142.097 11.5969C140.928 11.5969 139.98 11.9798 139.251 12.7456C138.523 13.5115 138.159 14.6219 138.159 16.0769V23.4862H134.192Z" fill="#303030" />
  <path d="M150.281 5.1641C149.821 5.64274 149.256 5.88205 148.585 5.88205C147.914 5.88205 147.339 5.64274 146.86 5.1641C146.381 4.68547 146.141 4.11111 146.141 3.44103C146.141 2.77094 146.381 2.19658 146.86 1.71795C147.339 1.23932 147.914 1 148.585 1C149.256 1 149.821 1.23932 150.281 1.71795C150.76 2.19658 150.999 2.77094 150.999 3.44103C150.999 4.11111 150.76 4.68547 150.281 5.1641ZM146.544 23.4862V7.80615H150.568V23.4862H146.544Z" fill="#303030" />
  <path d="M154.376 23.4862V7.80615H158.199V9.24205C159.656 8.05504 161.333 7.46154 163.23 7.46154C165.242 7.46154 166.737 7.97846 167.714 9.01231C168.711 10.027 169.209 11.7309 169.209 14.1241V23.4862H165.271V15.1005C165.271 13.6072 164.983 12.5542 164.408 11.9415C163.853 11.3289 163.038 11.0226 161.965 11.0226C160.604 11.0226 159.397 11.5682 158.343 12.6595V23.4862H154.376Z" fill="#303030" />
  <path d="M179.836 29C177.23 29 175.083 28.6554 173.397 27.9662V24.319C175.352 25.1997 177.287 25.64 179.204 25.64C180.833 25.64 182.059 25.3624 182.883 24.8072C183.726 24.252 184.148 23.3234 184.148 22.0215V21.0164C183.113 22.2417 181.542 22.8544 179.434 22.8544C177.153 22.8544 175.313 22.1364 173.914 20.7005C172.535 19.2646 171.845 17.4075 171.845 15.1292C171.845 12.8509 172.525 11.0034 173.886 9.58667C175.266 8.15077 177.057 7.43282 179.261 7.43282C181.312 7.43282 182.922 8.00718 184.091 9.1559V7.80615H188V20.7292C188 23.4096 187.368 25.4581 186.103 26.8749C184.838 28.2916 182.749 29 179.836 29ZM180.296 19.3221C182.097 19.3221 183.381 18.6328 184.148 17.2544V13.0041C183.765 12.3723 183.209 11.8745 182.481 11.5108C181.753 11.147 180.996 10.9651 180.21 10.9651C178.945 10.9651 177.91 11.348 177.105 12.1138C176.32 12.8797 175.927 13.8752 175.927 15.1005C175.927 16.345 176.32 17.3597 177.105 18.1446C177.91 18.9296 178.974 19.3221 180.296 19.3221Z" fill="#303030" />
  <path d="M42.6781 23.4862V3.12513H50.612C53.8124 3.12513 56.2941 3.96752 58.0572 5.65231C59.8203 7.33709 60.7018 9.80684 60.7018 13.0615C60.7018 16.3162 59.8394 18.8721 58.1147 20.7292C56.3899 22.5672 53.9178 23.4862 50.6982 23.4862H42.6781ZM46.645 19.7528H50.7557C52.4805 19.7528 53.8603 19.188 54.8951 18.0585C55.93 16.9289 56.4474 15.2632 56.4474 13.0615C56.4474 11.0704 55.9396 9.54838 54.9239 8.49539C53.9082 7.42325 52.4805 6.88718 50.6407 6.88718H46.645V19.7528Z" stroke="#303030" stroke-width="0.4" mask="url(#path-3-outside-1_4009_3043)" />
  <path d="M79.1661 15.6462C79.1661 16.2205 79.1565 16.613 79.1374 16.8236H66.9491C67.1599 17.9915 67.6582 18.8913 68.4439 19.5231C69.2488 20.1549 70.2932 20.4708 71.5772 20.4708C73.5319 20.4708 75.0459 19.8007 76.119 18.4605L78.6199 20.5856C77.0677 22.7299 74.6243 23.802 71.2897 23.802C68.6834 23.802 66.6329 23.065 65.1381 21.5908C63.6625 20.1166 62.9247 18.1159 62.9247 15.5887C62.9247 13.119 63.6816 11.1374 65.1956 9.6441C66.7095 8.13162 68.6738 7.37538 71.0885 7.37538C73.714 7.37538 75.7166 8.13162 77.0964 9.6441C78.4762 11.1374 79.1661 13.1381 79.1661 15.6462ZM71.0885 10.6779C70.0345 10.6779 69.1434 10.9556 68.4151 11.5108C67.6869 12.0468 67.2078 12.8605 66.9778 13.9518H75.2854C75.1513 13.0137 74.7392 12.2383 74.0493 11.6256C73.3594 10.9938 72.3725 10.6779 71.0885 10.6779Z" stroke="#303030" stroke-width="0.4" mask="url(#path-3-outside-1_4009_3043)" />
  <path d="M87.4449 23.8882C84.9728 23.8882 82.7593 23.4287 80.8046 22.5097L82.0694 19.3795C83.6217 20.3176 85.3752 20.7867 87.3299 20.7867C89.1505 20.7867 90.0608 20.2315 90.0608 19.121C90.0608 18.6615 89.8213 18.3074 89.3422 18.0585C88.8631 17.8096 87.9432 17.532 86.5826 17.2256C84.6853 16.8044 83.2768 16.2301 82.3569 15.5026C81.4562 14.775 81.0058 13.7125 81.0058 12.3149C81.0058 10.745 81.5616 9.54838 82.6731 8.72513C83.8038 7.90188 85.3369 7.49026 87.2725 7.49026C89.2655 7.49026 91.3161 7.90188 93.4241 8.72513L92.1305 11.8841C90.6166 11.08 88.9876 10.6779 87.2437 10.6779C85.7106 10.6779 84.944 11.1279 84.944 12.0277C84.944 12.5063 85.1644 12.8701 85.6052 13.119C86.0651 13.3679 86.9754 13.655 88.3361 13.9805C90.3099 14.4591 91.7568 15.0526 92.6767 15.761C93.6157 16.4503 94.0852 17.4458 94.0852 18.7477C94.0852 22.1747 91.8718 23.8882 87.4449 23.8882Z" stroke="#303030" stroke-width="0.4" mask="url(#path-3-outside-1_4009_3043)" />
  <path d="M96.8821 23.4862V1.71795H100.82V9.24205C102.238 8.05504 103.877 7.46154 105.736 7.46154C107.748 7.46154 109.243 7.97846 110.22 9.01231C111.217 10.027 111.715 11.7309 111.715 14.1241V23.4862H107.777V15.1005C107.777 13.6072 107.489 12.5542 106.914 11.9415C106.359 11.3289 105.544 11.0226 104.471 11.0226C103.11 11.0226 101.903 11.5682 100.849 12.6595V23.4862H96.8821Z" stroke="#303030" stroke-width="0.4" mask="url(#path-3-outside-1_4009_3043)" />
  <path d="M121.942 23.8308C119.642 23.8308 117.802 23.0937 116.423 21.6195C115.043 20.1262 114.353 18.1255 114.353 15.6174C114.353 13.1285 115.033 11.147 116.394 9.67282C117.755 8.17949 119.546 7.43282 121.769 7.43282C123.82 7.43282 125.43 8.00718 126.599 9.1559V7.80615H130.508V23.4862H126.656V21.9641C125.621 23.2085 124.05 23.8308 121.942 23.8308ZM122.804 20.2697C124.606 20.2697 125.89 19.5805 126.656 18.2021V13.0041C126.273 12.3723 125.717 11.8841 124.989 11.5395C124.261 11.1757 123.504 10.9938 122.718 10.9938C121.434 10.9938 120.399 11.4055 119.613 12.2287C118.828 13.0328 118.435 14.1624 118.435 15.6174C118.435 17.0533 118.828 18.1925 119.613 19.0349C120.399 19.8581 121.463 20.2697 122.804 20.2697Z" stroke="#303030" stroke-width="0.4" mask="url(#path-3-outside-1_4009_3043)" />
  <path d="M134.192 23.4862V7.80615H138.015V9.84513C139.223 8.25607 140.852 7.46154 142.902 7.46154C143.381 7.46154 143.745 7.5094 143.994 7.60513V11.8841C143.266 11.6926 142.634 11.5969 142.097 11.5969C140.928 11.5969 139.98 11.9798 139.251 12.7456C138.523 13.5115 138.159 14.6219 138.159 16.0769V23.4862H134.192Z" stroke="#303030" stroke-width="0.4" mask="url(#path-3-outside-1_4009_3043)" />
  <path d="M150.281 5.1641C149.821 5.64274 149.256 5.88205 148.585 5.88205C147.914 5.88205 147.339 5.64274 146.86 5.1641C146.381 4.68547 146.141 4.11111 146.141 3.44103C146.141 2.77094 146.381 2.19658 146.86 1.71795C147.339 1.23932 147.914 1 148.585 1C149.256 1 149.821 1.23932 150.281 1.71795C150.76 2.19658 150.999 2.77094 150.999 3.44103C150.999 4.11111 150.76 4.68547 150.281 5.1641ZM146.544 23.4862V7.80615H150.568V23.4862H146.544Z" stroke="#303030" stroke-width="0.4" mask="url(#path-3-outside-1_4009_3043)" />
  <path d="M154.376 23.4862V7.80615H158.199V9.24205C159.656 8.05504 161.333 7.46154 163.23 7.46154C165.242 7.46154 166.737 7.97846 167.714 9.01231C168.711 10.027 169.209 11.7309 169.209 14.1241V23.4862H165.271V15.1005C165.271 13.6072 164.983 12.5542 164.408 11.9415C163.853 11.3289 163.038 11.0226 161.965 11.0226C160.604 11.0226 159.397 11.5682 158.343 12.6595V23.4862H154.376Z" stroke="#303030" stroke-width="0.4" mask="url(#path-3-outside-1_4009_3043)" />
  <path d="M179.836 29C177.23 29 175.083 28.6554 173.397 27.9662V24.319C175.352 25.1997 177.287 25.64 179.204 25.64C180.833 25.64 182.059 25.3624 182.883 24.8072C183.726 24.252 184.148 23.3234 184.148 22.0215V21.0164C183.113 22.2417 181.542 22.8544 179.434 22.8544C177.153 22.8544 175.313 22.1364 173.914 20.7005C172.535 19.2646 171.845 17.4075 171.845 15.1292C171.845 12.8509 172.525 11.0034 173.886 9.58667C175.266 8.15077 177.057 7.43282 179.261 7.43282C181.312 7.43282 182.922 8.00718 184.091 9.1559V7.80615H188V20.7292C188 23.4096 187.368 25.4581 186.103 26.8749C184.838 28.2916 182.749 29 179.836 29ZM180.296 19.3221C182.097 19.3221 183.381 18.6328 184.148 17.2544V13.0041C183.765 12.3723 183.209 11.8745 182.481 11.5108C181.753 11.147 180.996 10.9651 180.21 10.9651C178.945 10.9651 177.91 11.348 177.105 12.1138C176.32 12.8797 175.927 13.8752 175.927 15.1005C175.927 16.345 176.32 17.3597 177.105 18.1446C177.91 18.9296 178.974 19.3221 180.296 19.3221Z" stroke="#303030" stroke-width="0.4" mask="url(#path-3-outside-1_4009_3043)" />
</svg>