 <svg width="32" height="30" viewbox="0 0 32 30" fill="none"
                                xmlns="http://www.w3.org/2000/svg">
                                <path
                                    d="M14.4231 1.02148C15.2238 -0.00498646 16.7762 -0.00498718 17.5769 1.02148L22.0414 6.74445C22.2725 7.04074 22.5824 7.26593 22.9357 7.39419L29.7581 9.87163C30.9818 10.316 31.4615 11.7924 30.7327 12.8711L26.6694 18.8856C26.4591 19.1969 26.3407 19.5613 26.3279 19.9369L26.0799 27.191C26.0355 28.4921 24.7795 29.4045 23.5284 29.0448L16.5527 27.0389C16.1916 26.9351 15.8084 26.9351 15.4473 27.0389L8.47161 29.0448C7.22046 29.4045 5.96454 28.4921 5.92008 27.191L5.67215 19.9369C5.65931 19.5613 5.54093 19.1969 5.33056 18.8856L1.26728 12.8711C0.538494 11.7924 1.01821 10.316 2.24188 9.87163L9.06433 7.39419C9.41755 7.26593 9.72749 7.04074 9.95863 6.74445L14.4231 1.02148Z"
                                    fill="#FFC819" />
                            </svg>