<svg width="36" height="36" viewBox="0 0 36 36" fill="none" xmlns="http://www.w3.org/2000/svg">
<path fill-rule="evenodd" clip-rule="evenodd" d="M18 0C8.05887 0 0 8.05887 0 18C0 27.9411 8.05887 36 18 36C27.9411 36 36 27.9411 36 18C36 8.05887 27.9411 0 18 0ZM28.6081 11.3576C29.3957 11.3576 29.5735 11.7641 29.3957 12.323C29.1181 13.604 26.8133 17.0019 26.0995 18.0543C25.9638 18.2543 25.8856 18.3696 25.8897 18.3696C25.6102 18.8269 25.5086 19.0302 25.8897 19.5383C26.0274 19.7261 26.3196 20.0128 26.6534 20.3404C26.9968 20.6774 27.3843 21.0576 27.6935 21.4183C28.8113 22.6886 29.6751 23.7556 29.9038 24.4924C30.107 25.2292 29.7513 25.6103 28.9892 25.6103H26.3724C25.6789 25.6103 25.3214 25.212 24.5596 24.3633C24.233 23.9993 23.832 23.5526 23.2983 23.0189C21.7485 21.5199 21.0626 21.3167 20.6815 21.3167C20.148 21.3167 19.9955 21.4437 19.9955 22.2059V24.5686C19.9955 25.2038 19.7923 25.5849 18.1155 25.5849C15.3463 25.5849 12.2722 23.9081 10.1127 20.7832C6.86073 16.2101 5.97153 12.7549 5.97153 12.069C5.97153 11.6879 6.09856 11.3322 6.86073 11.3322H9.50293C10.1635 11.3322 10.4175 11.6117 10.6716 12.3484C11.9673 16.0831 14.1268 19.3604 15.016 19.3604C15.3463 19.3604 15.4987 19.208 15.4987 18.3696V14.5079C15.436 13.4103 15.0539 12.9321 14.7705 12.5774C14.5948 12.3575 14.4571 12.1851 14.4571 11.942C14.4571 11.6371 14.7111 11.3322 15.1176 11.3322H19.2333C19.7923 11.3322 19.9955 11.6371 19.9955 12.2976V17.5058C19.9955 18.0647 20.2242 18.268 20.402 18.268C20.7323 18.268 21.0118 18.0647 21.6215 17.455C23.5015 15.3463 24.848 12.0944 24.848 12.0944C25.0259 11.7133 25.3307 11.3576 25.9913 11.3576H28.6081Z" fill="#D6D6D6"/>
</svg>